<svg t="1595314246918" class="icon" viewBox="0 0 1024 1024" version="1.1" xmlns="http://www.w3.org/2000/svg" p-id="1407" width="200" height="200"><path d="M121.1 808.5c0 84.7 68.6 149.3 153.3 149.3h585.4c23.1 0 41.8-18.7 41.8-41.8s-18.7-41.8-41.8-41.8c-38.4 0-69.7-27.3-69.7-65.7 0-38.4 31.3-65.7 69.7-65.7 21.8 0 39-16.8 41-38.1h0.8V139.5c0-38.5-31.2-69.7-69.7-69.7H190.8c-38.5 0-69.7 31.2-69.7 73.7v641.1m209-533.6h362.4c23.1 0 41.8 18.7 41.8 41.8 0 23.1-18.7 41.8-41.8 41.8H330.1c-23.1 0-41.8-18.7-41.8-41.8 0-23.1 18.7-41.8 41.8-41.8z m0 171.9h362.4c23.1 0 41.8 18.7 41.8 41.8 0 23.1-18.7 41.8-41.8 41.8H330.1c-23.1 0-41.8-18.7-41.8-41.8 0-23.1 18.7-41.8 41.8-41.8z m-55.7 451.3c-38.4 0-69.7-27.3-69.7-65.7 0-38.4 31.3-65.7 69.7-65.7h449.5c-10.8 21-17.4 40.4-17.4 65.7 0 25.3 6.7 44.7 17.4 65.7H274.4z m0 0" p-id="1408"></path></svg>