<svg t="1595314326071" class="icon" viewBox="0 0 1024 1024" version="1.1" xmlns="http://www.w3.org/2000/svg" p-id="1593" width="200" height="200"><path d="M796.8 70H227c-61.2-0.3-111 49-111.5 110.2v85h113.9v89.2H115.6v115h113.9v89.2H115.6v115h113.9v89.3H115.6v84.9C116 909 165.9 958.2 227 958h569.8c61.2 0.4 111.2-49 111.6-110.2V180.2C908 118.9 858 69.7 796.8 70z m-31.1 619.2c-6.6 4.9-13.5 9.5-20.7 13.5l-2.5 1.4h-366l-2.4-1.4c-7.2-4.1-14-8.6-20.6-13.5-10.2-8.2-16-20.8-15.7-33.9v-3.6c-0.3-7.5 0.5-14.9 2.2-22.2 5.6-16.3 16.5-30.2 31-39.5 20.2-15.2 42.3-27.6 65.8-37 14.4-6.2 29.1-11.8 44-16.9 8.3-3.9 14.9-10.8 18.5-19.2 3.2-6 4.2-13 2.7-19.7l-0.8-0.9c-40.2-43-55.1-103.9-39.2-160.6 8.6-35.3 36.2-62.9 71.4-71.7 5.1-1.3 10.4-2.2 15.6-2.8v-0.6h21.5v0.6c5.3 0.6 10.5 1.5 15.6 2.8 35.3 8.7 62.8 36.3 71.4 71.7 7.5 26.3 8.4 54.1 2.5 80.9-6.4 29.9-20.9 57.5-41.8 79.7l-0.6 0.8c-1.5 6.7-0.5 13.7 2.7 19.7 3.5 8.5 10.1 15.3 18.5 19 16.1 5.7 30.5 11.1 44.1 16.9 23.4 9.4 45.6 21.8 65.8 37 14.4 9.4 25.3 23.3 31 39.6 1.7 7.2 2.4 14.6 2.2 22v3.5c0.3 13.2-5.6 25.9-15.9 34.2l-0.3 0.2z m0 0" p-id="1594"></path></svg>